<?xml version="1.0" encoding="UTF-8" standalone="no"?>
<!-- Created with Inkscape (http://www.inkscape.org/) -->

<svg
   width="297.0mm"
   height="210.0mm"
   viewBox="0 0 297.0 210.0"
   version="1.1"
   id="SVGRoot"
   sodipodi:docname="faceLogo.svg"
   inkscape:version="1.2.1 (9c6d41e410, 2022-07-14)"
   xmlns:inkscape="http://www.inkscape.org/namespaces/inkscape"
   xmlns:sodipodi="http://sodipodi.sourceforge.net/DTD/sodipodi-0.dtd"
   xmlns:xlink="http://www.w3.org/1999/xlink"
   xmlns="http://www.w3.org/2000/svg"
   xmlns:svg="http://www.w3.org/2000/svg">
  <sodipodi:namedview
     id="namedview247"
     pagecolor="#ffffff"
     bordercolor="#000000"
     borderopacity="0.25"
     inkscape:showpageshadow="2"
     inkscape:pageopacity="0.0"
     inkscape:pagecheckerboard="0"
     inkscape:deskcolor="#d1d1d1"
     inkscape:document-units="mm"
     showgrid="false"
     inkscape:zoom="128"
     inkscape:cx="429.75781"
     inkscape:cy="364.96484"
     inkscape:window-width="1920"
     inkscape:window-height="1003"
     inkscape:window-x="0"
     inkscape:window-y="0"
     inkscape:window-maximized="1"
     inkscape:current-layer="layer1" />
  <defs
     id="defs242">
    <linearGradient
       id="linearGradient2366"
       inkscape:swatch="solid">
      <stop
         style="stop-color:#7f143e;stop-opacity:1;"
         offset="0"
         id="stop2364" />
    </linearGradient>
    <inkscape:path-effect
       effect="bspline"
       id="path-effect2290"
       is_visible="true"
       lpeversion="1"
       weight="33.333333"
       steps="2"
       helper_size="0"
       apply_no_weight="true"
       apply_with_weight="true"
       only_selected="false" />
    <inkscape:path-effect
       effect="bspline"
       id="path-effect2232"
       is_visible="true"
       lpeversion="1"
       weight="33.333333"
       steps="2"
       helper_size="0"
       apply_no_weight="true"
       apply_with_weight="true"
       only_selected="false" />
    <linearGradient
       id="linearGradient6247"
       inkscape:swatch="solid">
      <stop
         style="stop-color:#000000;stop-opacity:1;"
         offset="0"
         id="stop6245" />
    </linearGradient>
    <linearGradient
       id="linearGradient6241"
       inkscape:swatch="solid">
      <stop
         style="stop-color:#ff12ff;stop-opacity:1;"
         offset="0"
         id="stop6239" />
    </linearGradient>
    <linearGradient
       inkscape:collect="always"
       xlink:href="#linearGradient2366"
       id="linearGradient2368"
       x1="113.5547"
       y1="96.866606"
       x2="113.9735"
       y2="96.866606"
       gradientUnits="userSpaceOnUse"
       gradientTransform="matrix(1.0733523,0,0,1.2952714,-8.3235174,-28.583087)" />
  </defs>
  <g
     inkscape:label="Layer 1"
     inkscape:groupmode="layer"
     id="layer1">
    <path
       style="fill:#ff0000;fill-opacity:0.622124;fill-rule:evenodd;stroke:none;stroke-width:0;stroke-linecap:round;stroke-linejoin:round;stroke-dasharray:none;stroke-dashoffset:1.53627;paint-order:fill markers stroke"
       d="m 113.72641,96.314304 0.14084,0.282936 -0.0371,-0.202681 0.13194,0.02672 -0.0182,-0.170278 z"
       id="path4536"
       sodipodi:nodetypes="cccccc" />
    <path
       style="fill:#ff0000;fill-opacity:0.622124;fill-rule:evenodd;stroke:none;stroke-width:0;stroke-linecap:round;stroke-linejoin:round;stroke-dasharray:none;stroke-dashoffset:1.53627;paint-order:fill markers stroke"
       d="m 113.72127,96.317892 0.23101,0.464809 -0.43593,0.02698 0.29359,-0.136471 z"
       id="path4538"
       sodipodi:nodetypes="ccccc" />
    <path
       style="fill:#ff0000;fill-opacity:0.622124;fill-rule:evenodd;stroke:none;stroke-width:0;stroke-linecap:round;stroke-linejoin:round;stroke-dasharray:none;stroke-dashoffset:1.53627;paint-order:fill markers stroke"
       d="m 113.45055,96.115374 0.0623,0.685749 0.25924,-0.133269 -0.0702,-0.346674 z"
       id="path4540"
       sodipodi:nodetypes="ccccc" />
    <path
       style="fill:#bd45ff;fill-opacity:0.622124;fill-rule:evenodd;stroke:none;stroke-width:0;stroke-linecap:round;stroke-linejoin:round;stroke-dasharray:none;stroke-dashoffset:1.53627;paint-order:fill markers stroke"
       d="m 113.45477,96.095067 0.26197,0.218692 0.23909,-0.07346 0.0217,0.199329 -0.13316,-0.03479 0.0352,0.20634 0.0829,0.17212 0.0978,0.04894 0.0563,-0.36461 c 0,0 0.18472,0.194579 0.17292,-0.126931 -0.0118,-0.321505 -0.18155,-0.06067 -0.18155,-0.06067 0,0 -0.0533,-0.122521 0.0649,-0.242399 0.11821,-0.119874 -0.0799,-0.205807 -0.1314,-0.125157 -0.073,0.0938 -0.22438,-0.152236 -0.25583,0.0061 -0.0115,0.05793 0.0987,0.115714 0.0191,0.162191 -0.0914,-0.04556 -0.0141,-0.182552 -0.11267,-0.182954 -0.0777,0.0037 0.001,0.207026 -0.0736,0.15226 -0.0748,-0.05477 -0.022,-0.201969 -0.13049,-0.19131 -0.0846,0.0083 0.0389,0.177875 0.0239,0.181905 -0.0151,0.004 -0.0774,-0.210967 -0.13194,-0.09501 -0.0545,0.115961 0.0751,0.149402 0.0751,0.149402 z"
       id="path4738"
       sodipodi:nodetypes="cccccccccscscsccsssscc" />
    <path
       style="fill:#ffff73;fill-opacity:1;fill-rule:evenodd;stroke:none;stroke-width:0.175753;stroke-linecap:round;stroke-linejoin:round;stroke-dasharray:none;stroke-dashoffset:1.53627;paint-order:fill markers stroke"
       id="path6345"
       sodipodi:type="arc"
       sodipodi:cx="112.91862"
       sodipodi:cy="97.055824"
       sodipodi:rx="0.050396588"
       sodipodi:ry="0.049512528"
       sodipodi:start="0.045278583"
       sodipodi:end="0.04377772"
       sodipodi:arc-type="slice"
       d="m 112.96896,97.058065 a 0.05039659,0.04951253 0 0 1 -0.0526,0.04722 0.05039659,0.04951253 0 0 1 -0.0481,-0.05167 0.05039659,0.04951253 0 0 1 0.0526,-0.04726 0.05039659,0.04951253 0 0 1 0.0481,0.05163 l -0.0503,-0.0022 z"
       inkscape:transform-center-y="0.0437624"
       transform="matrix(0.99998041,-0.00625937,0.00653298,0.99997866,0,0)"
       inkscape:transform-center-x="-0.00029576281" />
    <path
       style="fill:#ffff73;fill-opacity:1;fill-rule:evenodd;stroke:none;stroke-width:0.175753;stroke-linecap:round;stroke-linejoin:round;stroke-dasharray:none;stroke-dashoffset:1.53627;paint-order:fill markers stroke"
       id="path6345-6"
       sodipodi:type="arc"
       sodipodi:cx="113.25431"
       sodipodi:cy="97.040657"
       sodipodi:rx="0.050396588"
       sodipodi:ry="0.049512528"
       sodipodi:start="0.045278583"
       sodipodi:end="0.04377772"
       sodipodi:arc-type="slice"
       d="m 113.30466,97.042898 a 0.05039659,0.04951253 0 0 1 -0.0526,0.04722 0.05039659,0.04951253 0 0 1 -0.0481,-0.05167 0.05039659,0.04951253 0 0 1 0.0526,-0.04726 0.05039659,0.04951253 0 0 1 0.0481,0.05163 l -0.0503,-0.0022 z"
       inkscape:transform-center-y="0.0437624"
       transform="matrix(0.99998041,-0.00625937,0.00653298,0.99997866,0,0)"
       inkscape:transform-center-x="-0.00029576281" />
    <path
       style="opacity:0.905817;fill:#ff0000;fill-opacity:0.623529;fill-rule:evenodd;stroke:url(#linearGradient2368);stroke-width:0.00589551;stroke-dasharray:none;paint-order:fill markers stroke"
       d="m 113.56069,96.82623 0.0612,0.113337 0.0956,-0.08673 0.0881,0.0911 0.1053,-0.09988 0.0769,0.109036 0.0225,-0.02822 -0.10036,-0.101121 v 0 l -0.10882,0.08526 -0.0772,-0.09117 v 0 l -0.10015,0.08175 z"
       id="path2362"
       sodipodi:nodetypes="cccccccccccccc" />
  </g>
</svg>
